<svg xmlns="http://www.w3.org/2000/svg" style="border: 0 !important; clip: rect(0 0 0 0) !important; height: 1px !important; margin: -1px !important; overflow: hidden !important; padding: 0 !important; position: absolute !important; width: 1px !important;" class="root-svg-symbols-element">
    <symbol id="icon-fb" viewBox="0 0 12 23">
       <path fillRule="evenodd" d="M 7.98 23C 7.98 23 7.98 12.91 7.98 12.91 7.98 12.91 11.24 12.91 11.24 12.91 11.24 12.91 11.73 8.97 11.73 8.97 11.73 8.97 7.98 8.97 7.98 8.97 7.98 8.97 7.98 6.46 7.98 6.46 7.98 5.32 8.29 4.54 9.86 4.54 9.86 4.54 11.86 4.54 11.86 4.54 11.86 4.54 11.86 1.02 11.86 1.02 11.51 0.98 10.32 0.87 8.94 0.87 6.05 0.87 4.07 2.7 4.07 6.07 4.07 6.07 4.07 8.97 4.07 8.97 4.07 8.97 0.81 8.97 0.81 8.97 0.81 8.97 0.81 12.91 0.81 12.91 0.81 12.91 4.07 12.91 4.07 12.91 4.07 12.91 4.07 23 4.07 23 4.07 23 7.98 23 7.98 23Z"/>
    </symbol>
    <symbol id="icon-tw" viewBox="0 0 22 17">
       <path fillRule="evenodd" d="M 21.34 2.02C 21.34 2.02 21.34 2.02 21.34 2.02 21.34 2.02 21.34 2.02 21.34 2.02M 14.98 0.01C 12.63 0.01 10.73 1.93 10.73 4.3 10.73 4.63 10.77 4.96 10.84 5.27 7.32 5.1 4.19 3.39 2.1 0.8 1.73 1.43 1.52 2.17 1.52 2.95 1.52 4.44 2.27 5.75 3.41 6.52 2.71 6.5 2.06 6.3 1.49 5.98 1.49 5.98 1.49 6.04 1.49 6.04 1.49 8.11 2.95 9.84 4.89 10.24 4.54 10.34 4.16 10.39 3.77 10.39 3.5 10.39 3.23 10.36 2.98 10.31 3.52 12.01 5.08 13.25 6.94 13.29 5.49 14.44 3.66 15.12 1.67 15.12 1.33 15.12 0.99 15.1 0.66 15.06 2.54 16.28 4.77 16.99 7.16 16.99 14.97 16.99 19.24 10.46 19.24 4.8 19.24 4.61 19.23 4.42 19.23 4.24 20.05 3.64 20.77 2.88 21.34 2.02 20.58 2.36 19.76 2.59 18.91 2.7 19.78 2.17 20.45 1.33 20.77 0.33 19.95 0.82 19.04 1.17 18.08 1.37 17.3 0.53 16.2 0.01 14.98 0.01"/>
    </symbol>
    <symbol id="icon-vk" viewBox="0 0 15 18">
       <path fillRule="evenodd" d="M 13.36 9.59C 12.69 8.87 11.8 8.39 10.68 8.16 10.68 8.16 10.68 8.06 10.68 8.06 11.5 7.74 12.07 7.23 12.51 6.55 12.95 5.86 13.17 5.08 13.17 4.2 13.17 3.45 13.02 2.78 12.7 2.2 12.38 1.62 11.91 1.16 11.26 0.81 10.67 0.49 10.03 0.26 9.35 0.16 8.67 0.06 7.68-0.01 6.36-0.01 6.36-0.01-0-0.01-0-0.01-0-0.01-0 17.97-0 17.97-0 17.97 7.2 17.97 7.2 17.97 8.45 17.97 9.48 17.88 10.28 17.65 11.09 17.43 11.83 17.06 12.51 16.53 13.08 16.09 13.53 15.53 13.87 14.86 14.21 14.18 14.37 13.4 14.37 12.5 14.37 11.28 14.03 10.31 13.36 9.59ZM 4.48 3.29C 4.48 3.29 4.82 3.29 4.82 3.29 5.62 3.29 6.23 3.31 6.63 3.32 7.04 3.33 7.39 3.41 7.69 3.54 8 3.68 8.23 3.91 8.38 4.21 8.53 4.52 8.6 4.82 8.6 5.11 8.6 5.5 8.53 5.85 8.4 6.15 8.26 6.45 8.01 6.68 7.65 6.85 7.32 7 7 7.08 6.69 7.09 6.38 7.11 5.84 7.11 5.07 7.11 5.07 7.11 4.48 7.11 4.48 7.11 4.48 7.11 4.48 3.29 4.48 3.29ZM 9.45 13.59C 9.26 13.93 8.96 14.19 8.55 14.37 8.09 14.57 7.63 14.65 7.18 14.67 6.73 14.69 5.92 14.67 4.75 14.67 4.75 14.67 4.48 14.67 4.48 14.67 4.48 14.67 4.48 10.18 4.48 10.18 4.48 10.18 5.34 10.18 5.34 10.18 6.14 10.18 6.78 10.2 7.26 10.21 7.74 10.22 8.11 10.29 8.38 10.39 8.84 10.56 9.17 10.8 9.4 11.11 9.62 11.43 9.73 11.86 9.73 12.42 9.73 12.85 9.64 13.24 9.45 13.59Z"/>
    </symbol></svg>